<svg width="176" height="193" fill="none" xmlns="http://www.w3.org/2000/svg"><path fill-rule="evenodd" clip-rule="evenodd" d="M73.2956 49.5262C83.4207 31.2177 100.292 15.1602 105.11 11.0308C108.409 8.00521 107.932 5.31363 107.932 5.31363C107.244 2.46472 101.646 0.668722 94.4768 0.124113C45.1593 -2.44886 1.31156 35.2938 0.04501 84.4393C-0.368258 100.504 2.05301 112.292 7.77799 124.254C9.5283 127.824 13.5832 126.795 14.0183 123.852C15.1779 101.279 22.906 73.1768 30.6925 59.3316C35.9118 50.6518 41.2673 41.8751 48.113 47.614C50.9208 50.5816 46.6447 55.6912 42.1327 65.3659C34.3609 82.866 31.1471 98.4128 28.8571 109.683C26.4456 123.535 25.6336 138.024 26.7616 150.068C27.7875 167.733 35.625 178.821 40.5453 175.423C43.7348 172.722 38.5689 170.086 40.1175 166.772C40.1175 166.772 41.0777 164.865 43.2632 164.86C43.2632 164.86 44.1018 165.008 45.8667 164.887C49.0659 164.691 48.3318 159.462 48.3318 159.462C46.6276 140.967 50.3641 117.873 50.3641 117.873C54.3582 91.2457 63.1754 67.8372 73.2956 49.5262ZM164.671 45.2999C164.671 45.2999 163.014 42.6584 165.529 39.3275C165.529 39.3275 167.038 37.656 169.828 37.1794C169.828 37.1794 170.568 37.0609 171.456 36.9061C171.456 36.9061 174.575 36.4175 174.471 32.9511C174.471 32.9511 174.532 29.9564 169.937 29.5114C169.937 29.5114 165.705 29.1074 161.075 31.1732C161.075 31.1732 151.516 34.9492 138.163 48.6816C128.043 59.1266 115.418 80.8126 108.379 104.003C101.212 127.612 98.1725 149.557 101.795 172.273C101.795 172.273 103.872 183.362 109.852 187.488C109.852 187.488 111.859 188.937 113.881 188.236C113.881 188.236 115 187.726 115.416 187.014C115.89 186.255 116.376 184.745 115.392 183.347C115.392 183.347 115.087 182.851 114.642 182.172C114.642 182.172 113.656 180.672 113.443 178.889C113.443 178.889 112.865 175.757 114.313 173.843C115.515 172.041 117.251 171.572 117.251 171.572C147.497 161.618 173.347 131.405 175.825 93.9717C176.805 75.2562 173.746 60.0434 164.671 45.2999ZM134.845 34.1079C134.845 34.1079 139.855 29.6198 143.837 27.0838C143.837 27.0838 145.796 25.8822 145.823 23.503C145.823 23.503 145.922 21.2227 143.247 18.9908C143.247 18.9908 142.426 18.2307 141.843 17.2534C141.843 17.2534 140.95 15.6705 142.026 13.3179C142.026 13.3179 142.888 11.5371 144.718 10.8905C144.718 10.8905 145.575 10.5334 147.768 9.99044C147.768 9.99044 149.107 9.79982 149.87 9.16039C150.734 8.39789 150.819 6.80052 150.356 5.71227C150.356 5.71227 149.728 3.9484 145.724 3.69746C145.724 3.69746 143.037 3.3138 139.426 4.15109C139.426 4.15109 136.768 4.65057 133.138 6.1635C130.973 7.32654 96.3338 20.7739 73.5538 88.1702C73.5538 88.1702 63.6035 119.302 62.7392 152.451C62.7392 152.451 61.3188 175.618 68.9097 188.286C68.9097 188.286 70.0075 190.296 72.5042 192.246C72.5042 192.246 74.6011 194.039 76.7968 192.096C76.7968 192.096 79.0045 190.371 76.7294 186.79C76.7294 186.79 76.3779 186.252 75.9469 184.937C75.9469 184.937 75.4052 182.876 76.2141 180.958C76.2141 180.958 77.1844 177.749 81.1159 177.322C81.1159 177.322 85.0955 177.43 86.9878 174.998C86.9878 174.998 88.8392 172.363 88.2229 168.546C88.2229 168.546 87.763 163.643 87.3225 157.181C86.6508 145.664 87.3538 135.399 90.1971 120.284C90.1971 120.284 94.3284 100.179 98.4525 90.0209C102.577 79.8624 110.271 57.7356 134.845 34.1079Z" fill="url(#paint0_linear_2193_44128)"/><defs><linearGradient id="paint0_linear_2193_44128" x1="132" y1="8.99999" x2="27" y2="158" gradientUnits="userSpaceOnUse"><stop stop-color="#24D657"/><stop offset="1" stop-color="#24D657" stop-opacity="0"/></linearGradient></defs></svg>